<?xml version="1.0" encoding="UTF-8"?>
<svg id="Calque_2" data-name="Calque 2" xmlns="http://www.w3.org/2000/svg" viewBox="0 0 16 16">
  <defs>
    <style>
      .cls-1 {
        fill: none;
        stroke: #000;
        stroke-miterlimit: 10;
        stroke-width: .75px;
      }
    </style>
  </defs>
  <g id="Calque_2-2" data-name="Calque 2-2">
    <path class="cls-1" d="M4.77,11.97v-7.64c.55-.2,2.2-.19,2.84-.14,2.56.23,4.7,1.61,4.7,3.81s-1.9,3.83-4.31,3.97h0l.03-6.08,2.98,2.56,1.65-1.42,1.33-1.14h0v6.28c-1.27,1.13-3.05,1.83-5.02,1.83-2.1,0-3.98-.8-5.26-2.06-1.07-1.05-1.72-2.43-1.72-3.94,0-1.81.93-3.43,2.4-4.53,1.23-.92,2.83-1.47,4.58-1.47,1.97,0,3.75.7,5.02,1.83"/>
  </g>
</svg>